The.Inbetweeners.US.S01E12.720p.HD setscow

Format                           : MPEG-4
Format profile                   : Base Media
Codec ID                         : isom
File size                        : 163 MiB
Duration                         : 20mn 22s
Overall bit rate                 : 1 121 Kbps
Encoded date                     : UTC 2012-11-06 04:03:30
Tagged date                      : UTC 2012-11-06 04:03:30

Video
ID                               : 1
Format                           : AVC
Format/Info                      : Advanced Video Codec
Format profile                   : High@L3.1
Format settings, CABAC           : Yes
Format settings, ReFrames        : 5 frames
Codec ID                         : avc1
Codec ID/Info                    : Advanced Video Coding
Duration                         : 20mn 21s
Bit rate mode                    : Variable
Bit rate                         : 991 Kbps
Maximum bit rate                 : 3 944 Kbps
Width                            : 720 pixels
Height                           : 404 pixels
Display aspect ratio             : 16:9
Frame rate mode                  : Constant
Frame rate                       : 23.976 fps
Color space                      : YUV
Chroma subsampling               : 4:2:0
Bit depth                        : 8 bits
Scan type                        : Progressive
Bits/(Pixel*Frame)               : 0.142
Stream size                      : 144 MiB (88%)
Encoded date                     : UTC 2012-11-06 03:37:57
Tagged date                      : UTC 2012-11-06 04:03:31
Matrix coefficients              : BT.709-5, BT.1361, IEC 61966-2-4 709, SMPTE RP177

Audio
ID                               : 2
Format                           : AAC
Format/Info                      : Advanced Audio Codec
Format profile                   : LC
Codec ID                         : 40
Duration                         : 20mn 22s
Bit rate mode                    : Variable
Bit rate                         : 126 Kbps
Maximum bit rate                 : 149 Kbps
Channel(s)                       : 2 channels
Channel positions                : Front: L R
Sampling rate                    : 48.0 KHz
Compression mode                 : Lossy
Stream size                      : 18.4 MiB (11%)
Encoded date                     : UTC 2012-11-06 04:03:31
Tagged date                      : UTC 2012-11-06 04:03:31

